<?xml version="1.0" encoding="utf-8"?>
<!-- Generator: Adobe Illustrator 20.0.0, SVG Export Plug-In . SVG Version: 6.00 Build 0)  -->
<svg version="1.1" id="Layer_1" xmlns="http://www.w3.org/2000/svg" xmlns:xlink="http://www.w3.org/1999/xlink" x="0px" y="0px"
	 viewBox="0 0 166 47" style="enable-background:new 0 0 166 47;" xml:space="preserve">
<style type="text/css">
	.st0{fill:#FFFFFF;}
</style>
<g>
	<path class="st0" d="M35.1,32.9v3c-0.2,3.1-2.3,3.5-5.3,3.7v7.1h20.3v-7.1c-3-0.2-5.1-0.6-5.3-3.7v-3H35.1z"/>
	<path class="st0" d="M0.7,20.4h49.6c0.3,0,0.5,0.3,0.5,0.6l0,0c0,0.3-0.2,0.6-0.5,0.6H0.7c-0.3,0-0.5-0.3-0.5-0.6l0,0
		C0.2,20.6,0.4,20.4,0.7,20.4"/>
	<path class="st0" d="M0.7,23.3h49.6c0.3,0,0.5,0.3,0.5,0.6l0,0c0,0.3-0.2,0.6-0.5,0.6H0.7c-0.3,0-0.5-0.3-0.5-0.6l0,0
		C0.2,23.6,0.4,23.3,0.7,23.3"/>
	<path class="st0" d="M0.7,26.2h49.6c0.3,0,0.5,0.3,0.5,0.6l0,0c0,0.3-0.2,0.6-0.5,0.6H0.7c-0.3,0-0.5-0.3-0.5-0.6l0,0
		C0.2,26.5,0.4,26.2,0.7,26.2"/>
	<path class="st0" d="M0.7,29.2h49.6c0.3,0,0.5,0.3,0.5,0.6l0,0c0,0.3-0.2,0.6-0.5,0.6H0.7c-0.3,0-0.5-0.3-0.5-0.6l0,0
		C0.2,29.4,0.4,29.2,0.7,29.2"/>
	<path class="st0" d="M0.7,32.1h49.6c0.3,0,0.5,0.3,0.5,0.6l0,0c0,0.3-0.2,0.6-0.5,0.6H0.7c-0.3,0-0.5-0.3-0.5-0.6l0,0
		C0.2,32.3,0.4,32.1,0.7,32.1"/>
	<path class="st0" d="M1,39.6v7.1h20.5v-7.1c-1.5,0-2.4-0.1-3-0.7c-0.7-0.5-0.6-1.2,0.1-2.3l16.6-24.4v8.1h9.7v-20H33.1L9.2,35.1
		C6.8,38.8,5.9,39.7,1,39.6"/>
	<path class="st0" d="M159.3,21.9c-0.9,0-1.6,0.4-2.2,1.2c-0.6,0.8-1.1,2-1.6,3.7s-0.6,3-0.4,3.8c0.2,0.8,0.7,1.2,1.6,1.2
		c0.9,0,1.6-0.4,2.2-1.2c0.6-0.8,1.1-2,1.6-3.7s0.6-3,0.4-3.8C160.7,22.3,160.2,21.9,159.3,21.9 M150.4,26.8c0.6-2.1,1.7-3.8,3.4-5
		s3.7-1.8,6-1.8s4,0.6,5,1.8c1,1.2,1.2,2.9,0.6,5c-0.6,2.1-1.7,3.8-3.4,5s-3.7,1.8-6,1.8s-4-0.6-5-1.8
		C150.1,30.6,149.9,28.9,150.4,26.8z"/>
	<path class="st0" d="M144.1,27.3l-0.1-3.9l-2.2,3.9H144.1z M142,33.3l0.5-1.8h0.6c0.5,0,0.8,0,0.9-0.1c0.1-0.1,0.2-0.2,0.2-0.3
		c0-0.1,0-0.2,0.1-0.3c0-0.1,0-0.2,0-0.3l-0.1-1.4h-3.5l-0.7,1.2c-0.1,0.2-0.2,0.3-0.3,0.4s-0.1,0.2-0.1,0.3c0,0.1,0,0.2,0.2,0.3
		c0.1,0.1,0.4,0.1,0.6,0.1h0.6l-0.5,1.8h-5.8l0.5-1.8h0.5c0.3,0,0.6-0.1,0.9-0.3c0.3-0.2,0.6-0.5,0.9-1l6-9.8h4.7l0.4,9.8
		c0,0.6,0.1,1,0.3,1.2c0.1,0.1,0.4,0.2,0.8,0.2h0.7l-0.5,1.8C149.9,33.3,142,33.3,142,33.3z"/>
	<path class="st0" d="M131.2,20.3c2.6,0,4.4,0.5,5.3,1.6c1,1.1,1.2,2.7,0.6,4.9c-0.6,2.2-1.7,3.8-3.2,4.9s-3.6,1.6-6.2,1.6h-7
		l0.5-1.8h0.7c0.4,0,0.7-0.1,0.9-0.2c0.2-0.1,0.3-0.4,0.4-0.9v-0.1l1.9-7.1c0.1-0.5,0.2-0.8,0.1-0.9s-0.4-0.2-0.8-0.2h-0.6l0.5-1.8
		H131.2z M127.3,31.4h1c0.9,0,1.7-0.4,2.3-1.1s1.1-1.9,1.6-3.5c0.4-1.7,0.6-2.8,0.3-3.5c-0.2-0.7-0.8-1.1-1.7-1.1h-1L127.3,31.4z"/>
	<path class="st0" d="M114.3,27.3l-0.1-3.9l-2.2,3.9H114.3z M112.1,33.3l0.5-1.8h0.6c0.5,0,0.8,0,0.9-0.1s0.2-0.2,0.2-0.3
		c0-0.1,0-0.2,0.1-0.3c0-0.1,0-0.2,0-0.3l-0.1-1.4h-3.5l-0.7,1.2c-0.1,0.2-0.2,0.3-0.3,0.4c-0.1,0.1-0.1,0.2-0.1,0.3
		c0,0.1,0,0.2,0.2,0.3c0.1,0.1,0.4,0.1,0.6,0.1h0.6l-0.5,1.8h-5.8l0.5-1.8h0.5c0.3,0,0.6-0.1,0.9-0.3c0.3-0.2,0.6-0.5,0.9-1l6-9.8
		h4.7l0.4,9.8c0,0.6,0.1,1,0.3,1.2c0.1,0.1,0.4,0.2,0.8,0.2h0.7l-0.5,1.8C120,33.3,112.1,33.3,112.1,33.3z"/>
	<path class="st0" d="M106.6,28.4c-0.5,1.7-1.4,3.1-2.7,4c-1.3,0.9-2.9,1.4-4.8,1.4c-2.2,0-3.8-0.6-4.7-1.8c-0.9-1.2-1-2.9-0.4-5.1
		c0.6-2.1,1.6-3.7,3.2-5s3.4-1.9,5.5-1.9c0.7,0,1.3,0.1,1.9,0.2s1.1,0.4,1.5,0.7l0.5-0.7h2.1l-1.4,5.3H105c0.1-1.2,0-2.2-0.3-2.7
		c-0.3-0.6-0.9-0.8-1.7-0.8c-0.9,0-1.7,0.4-2.3,1.2c-0.6,0.8-1.2,2-1.6,3.7c-0.5,1.8-0.6,3-0.4,3.8s0.8,1.2,1.8,1.2
		c0.9,0,1.7-0.3,2.4-0.9c0.7-0.6,1.3-1.5,1.6-2.5h2.1V28.4z"/>
	<path class="st0" d="M87.2,27.3l-0.2-4l-2.2,3.9h2.4V27.3z M85.1,33.3l0.5-1.8h0.6c0.5,0,0.8,0,0.9-0.1s0.2-0.2,0.2-0.3
		c0-0.1,0-0.2,0.1-0.3c0-0.1,0-0.2,0-0.3l-0.1-1.4h-3.5L83,30.4c-0.1,0.2-0.2,0.3-0.3,0.4c-0.1,0.1-0.1,0.2-0.1,0.3
		c0,0.1,0,0.2,0.2,0.3c0.1,0.1,0.4,0.1,0.6,0.1H84l-0.5,1.8h-5.8l0.5-1.8h0.5c0.3,0,0.6-0.1,0.9-0.3c0.3-0.2,0.6-0.5,0.9-1l6-9.8
		h4.7l0.4,9.8c0,0.6,0.1,1,0.3,1.2c0.1,0.1,0.4,0.2,0.8,0.2h0.7l-0.5,1.8h-7.8V33.3z"/>
	<path class="st0" d="M72.5,22.4c-0.7,0-1.3,0.2-1.8,0.7s-0.9,1.2-1.1,2.1v0.1h-1.9l1.3-4.9h13.6l-1.3,4.9h-1.9v-0.1
		c0.2-0.9,0.2-1.6,0-2.1s-0.7-0.7-1.5-0.7h-0.6l-2.1,8c-0.1,0.5-0.1,0.8,0,0.9s0.4,0.2,0.8,0.2h1.1l-0.5,1.8h-8.5l0.5-1.8h1
		c0.4,0,0.7-0.1,0.9-0.2c0.2-0.1,0.3-0.4,0.5-1l2.1-8h-0.6V22.4z"/>
	<path class="st0" d="M61.6,27.3l-0.1-3.9l-2.2,3.9H61.6z M59.5,33.3l0.5-1.8h0.6c0.5,0,0.8,0,0.9-0.1c0.1-0.1,0.2-0.2,0.2-0.3
		c0-0.1,0-0.2,0.1-0.3c0-0.1,0-0.2,0-0.3l-0.1-1.4h-3.5l-0.7,1.2c-0.1,0.2-0.2,0.3-0.3,0.4s-0.1,0.2-0.1,0.3c0,0.1,0,0.2,0.2,0.3
		c0.1,0.1,0.4,0.1,0.6,0.1h0.6L58,33.3h-5.8l0.5-1.8h0.5c0.3,0,0.6-0.1,0.9-0.3c0.3-0.2,0.6-0.5,0.9-1l6-9.8h4.7l0.4,9.8
		c0,0.6,0.1,1,0.3,1.2c0.1,0.1,0.4,0.2,0.8,0.2h0.7l-0.5,1.8h-7.9V33.3z"/>
	<polygon class="st0" points="144.3,17.9 149.1,17.9 148.4,19.1 143.6,19.1 	"/>
</g>
</svg>
